<?xml version="1.0" encoding="UTF-8"?>
<svg id="_Слой_2" data-name="Слой 2" xmlns="http://www.w3.org/2000/svg" viewBox="0 0 425.57 488.58">
  <defs>
    <style>
      .cls-1 {
        isolation: isolate;
      }

      .cls-2 {
        fill: #9a9a9a;
      }

      .cls-2, .cls-3 {
        stroke-width: 0px;
      }

      .cls-3 {
        fill: #848484;
      }
    </style>
  </defs>
  <g id="_Монтажная_область_1" data-name="Монтажная область 1" class="cls-1">
    <g id="_57_99_завершено" data-name="57/99 завершено">
      <g>
        <polygon class="cls-2" points="28.59 366.44 59.13 274.83 89.67 183.22 130.58 166.11 150.74 183.22 181.28 213.75 211.81 244.29 242.35 274.83 272.88 305.36 289.17 348.39 242.35 366.44 181.28 396.97 120.2 427.51 89.67 458.04 65.6 476.01 9.3 468.27 28.59 366.44"/>
        <rect class="cls-3" x="0" y="458.04" width="28.59" height="30.54"/>
        <rect class="cls-2" x="28.59" y="458.04" width="30.54" height="30.54"/>
        <rect class="cls-2" x="0" y="427.51" width="28.59" height="30.54"/>
        <rect class="cls-2" x="0" y="396.97" width="28.59" height="30.54"/>
        <rect class="cls-2" x="59.13" y="458.04" width="30.54" height="30.54"/>
        <rect class="cls-2" x="89.67" y="427.51" width="30.54" height="30.54"/>
        <rect class="cls-2" x="120.2" y="396.97" width="30.54" height="30.54"/>
        <rect class="cls-2" x="150.74" y="396.97" width="30.54" height="30.54"/>
        <rect class="cls-2" x="181.28" y="366.44" width="30.54" height="30.54"/>
        <rect class="cls-3" x="0" y="366.44" width="28.59" height="30.54"/>
        <rect class="cls-3" x="28.43" y="396.81" width="30.54" height="30.54"/>
        <rect class="cls-3" x="59.13" y="427.51" width="30.54" height="30.54"/>
        <rect class="cls-2" x="211.81" y="366.44" width="30.54" height="30.54"/>
        <rect class="cls-2" x="242.35" y="335.9" width="30.54" height="30.54"/>
        <rect class="cls-2" x="272.88" y="335.9" width="30.54" height="30.54"/>
        <rect class="cls-3" x="272.88" y="305.36" width="30.54" height="30.54"/>
        <rect class="cls-3" x="242.35" y="274.83" width="30.54" height="30.54"/>
        <rect class="cls-2" x="242.35" y="183.22" width="30.54" height="30.54"/>
        <rect class="cls-3" x="211.81" y="244.29" width="30.54" height="30.54"/>
        <rect class="cls-3" x="181.28" y="213.75" width="30.54" height="30.54"/>
        <rect class="cls-3" x="150.74" y="183.22" width="30.54" height="30.54"/>
        <rect class="cls-3" x="120.2" y="152.68" width="30.54" height="30.54"/>
        <rect class="cls-3" x="89.67" y="122.15" width="30.54" height="30.54"/>
        <rect class="cls-2" x="89.67" y="152.68" width="30.54" height="30.54"/>
        <rect class="cls-2" x="59.13" y="152.68" width="30.54" height="30.54"/>
        <rect class="cls-2" x="0" y="91.61" width="28.59" height="30.54"/>
        <rect class="cls-2" x="303.42" y="91.45" width="30.54" height="30.54"/>
        <rect class="cls-2" x="120.2" y="60.88" width="30.54" height="30.54"/>
        <rect class="cls-2" x="150.82" y="91.49" width="30.54" height="30.54"/>
        <rect class="cls-2" x="181.35" y="61.07" width="30.54" height="30.54"/>
        <rect class="cls-2" x="333.96" y="183.22" width="30.54" height="30.54"/>
        <rect class="cls-2" x="333.96" y="152.68" width="30.54" height="30.54"/>
        <rect class="cls-2" x="364.49" y="152.68" width="30.54" height="30.54"/>
        <rect class="cls-2" x="364.49" y="122.15" width="30.54" height="30.54"/>
        <rect class="cls-2" x="333.96" y="244.29" width="30.54" height="30.54"/>
        <rect class="cls-2" x="333.96" y="366.44" width="30.54" height="30.54"/>
        <rect class="cls-2" x="364.49" y="427.51" width="30.54" height="30.54"/>
        <rect class="cls-2" x="395.03" y="427.51" width="30.54" height="30.54"/>
        <rect class="cls-2" x="28.59" y="61.07" width="30.54" height="30.54"/>
        <rect class="cls-3" x="59.13" y="183.22" width="30.54" height="30.54"/>
        <rect class="cls-3" x="89.67" y="213.75" width="30.54" height="30.54"/>
        <rect class="cls-3" x="120.2" y="244.29" width="30.54" height="30.54"/>
        <rect class="cls-3" x="150.74" y="274.83" width="30.54" height="30.54"/>
        <rect class="cls-3" x="181.28" y="305.36" width="30.54" height="30.54"/>
        <rect class="cls-3" x="211.81" y="335.9" width="30.54" height="30.54"/>
        <rect class="cls-2" x="59.13" y="0" width="30.54" height="30.54"/>
        <rect class="cls-2" x="59.13" y="213.75" width="30.54" height="30.54"/>
        <rect class="cls-2" x="59.13" y="244.29" width="30.54" height="30.54"/>
        <rect class="cls-2" x="29.32" y="244.29" width="30.54" height="30.54"/>
        <rect class="cls-3" x="29.32" y="274.83" width="30.54" height="30.54"/>
        <rect class="cls-3" x="59.49" y="305" width="30.54" height="30.54"/>
        <rect class="cls-3" x="90.03" y="335.54" width="30.54" height="30.54"/>
        <rect class="cls-3" x="120.56" y="366.07" width="30.54" height="30.54"/>
        <rect class="cls-3" x="151.14" y="396.65" width="30.54" height="30.54"/>
        <rect class="cls-2" x="29.32" y="305.36" width="30.54" height="30.54"/>
        <rect class="cls-2" x="29.32" y="335.9" width="30.54" height="30.54"/>
      </g>
    </g>
  </g>
</svg>