<?xml version="1.0" encoding="UTF-8"?>
<svg id="_Слой_2" data-name="Слой 2" xmlns="http://www.w3.org/2000/svg" viewBox="0 0 723.2 723.2">
  <defs>
    <style>
      .cls-1 {
        fill: #f1af41;
      }

      .cls-1, .cls-2, .cls-3, .cls-4 {
        stroke-width: 0px;
      }

      .cls-2 {
        fill: #c85c2f;
      }

      .cls-3 {
        fill: #f9e166;
      }

      .cls-4 {
        fill: #333;
      }
    </style>
  </defs>
  <g id="_Слой_1-2" data-name="Слой 1">
    <g>
      <rect class="cls-4" y="425.44" width="42.53" height="42.53"/>
      <rect class="cls-4" y="382.91" width="42.53" height="42.53"/>
      <rect class="cls-4" y="340.29" width="42.53" height="42.61"/>
      <rect class="cls-4" y="297.77" width="42.53" height="42.53"/>
      <rect class="cls-4" y="255.24" width="42.53" height="42.53"/>
      <rect class="cls-4" x="42.53" y="510.49" width="42.53" height="42.53"/>
      <rect class="cls-4" x="42.53" y="467.96" width="42.53" height="42.53"/>
      <rect class="cls-3" x="42.53" y="425.44" width="42.53" height="42.53"/>
      <rect class="cls-3" x="42.53" y="382.91" width="42.53" height="42.53"/>
      <rect class="cls-3" x="42.53" y="340.29" width="42.53" height="42.61"/>
      <rect class="cls-3" x="42.53" y="297.77" width="42.53" height="42.53"/>
      <rect class="cls-3" x="42.53" y="255.24" width="42.53" height="42.53"/>
      <rect class="cls-4" x="42.53" y="212.72" width="42.53" height="42.53"/>
      <rect class="cls-4" x="42.53" y="170.19" width="42.53" height="42.53"/>
      <rect class="cls-4" x="85.05" y="553.01" width="42.53" height="42.61"/>
      <rect class="cls-3" x="85.05" y="510.49" width="42.53" height="42.53"/>
      <rect class="cls-3" x="85.05" y="467.96" width="42.53" height="42.53"/>
      <rect class="cls-1" x="85.05" y="425.44" width="42.53" height="42.53"/>
      <rect class="cls-1" x="85.05" y="382.91" width="42.53" height="42.53"/>
      <rect class="cls-1" x="85.05" y="340.29" width="42.53" height="42.61"/>
      <rect class="cls-1" x="85.05" y="297.77" width="42.53" height="42.53"/>
      <rect class="cls-1" x="85.05" y="255.24" width="42.53" height="42.53"/>
      <rect class="cls-3" x="85.05" y="212.72" width="42.53" height="42.53"/>
      <rect class="cls-3" x="85.05" y="170.19" width="42.53" height="42.53"/>
      <rect class="cls-4" x="85.05" y="127.67" width="42.53" height="42.53"/>
      <rect class="cls-4" x="127.58" y="595.63" width="42.61" height="42.53"/>
      <rect class="cls-3" x="127.58" y="553.01" width="42.61" height="42.61"/>
      <rect class="cls-1" x="127.58" y="510.49" width="42.61" height="42.53"/>
      <rect class="cls-1" x="127.58" y="467.96" width="42.61" height="42.53"/>
      <rect class="cls-1" x="127.58" y="425.44" width="42.61" height="42.53"/>
      <rect class="cls-1" x="127.58" y="382.91" width="42.61" height="42.53"/>
      <rect class="cls-1" x="127.58" y="340.29" width="42.61" height="42.61"/>
      <rect class="cls-1" x="127.58" y="297.77" width="42.61" height="42.53"/>
      <rect class="cls-1" x="127.58" y="255.24" width="42.61" height="42.53"/>
      <rect class="cls-1" x="127.58" y="212.72" width="42.61" height="42.53"/>
      <rect class="cls-1" x="127.58" y="170.19" width="42.61" height="42.53"/>
      <rect class="cls-3" x="127.58" y="127.67" width="42.61" height="42.53"/>
      <rect class="cls-4" x="127.58" y="85.05" width="42.61" height="42.61"/>
      <rect class="cls-4" x="170.19" y="638.15" width="42.53" height="42.53"/>
      <rect class="cls-3" x="170.19" y="595.63" width="42.53" height="42.53"/>
      <rect class="cls-1" x="170.19" y="553.01" width="42.53" height="42.61"/>
      <rect class="cls-1" x="170.19" y="510.49" width="42.53" height="42.53"/>
      <rect class="cls-1" x="170.19" y="467.96" width="42.53" height="42.53"/>
      <rect class="cls-1" x="170.19" y="425.44" width="42.53" height="42.53"/>
      <rect class="cls-1" x="170.19" y="382.91" width="42.53" height="42.53"/>
      <rect class="cls-1" x="170.19" y="340.29" width="42.53" height="42.61"/>
      <rect class="cls-1" x="170.19" y="297.77" width="42.53" height="42.53"/>
      <rect class="cls-1" x="170.19" y="255.24" width="42.53" height="42.53"/>
      <rect class="cls-1" x="170.19" y="212.72" width="42.53" height="42.53"/>
      <rect class="cls-1" x="170.19" y="170.19" width="42.53" height="42.53"/>
      <rect class="cls-1" x="170.19" y="127.67" width="42.53" height="42.53"/>
      <rect class="cls-3" x="170.19" y="85.05" width="42.53" height="42.61"/>
      <rect class="cls-4" x="170.19" y="42.53" width="42.53" height="42.53"/>
      <rect class="cls-4" x="212.72" y="638.15" width="42.53" height="42.53"/>
      <rect class="cls-1" x="212.72" y="595.63" width="42.53" height="42.53"/>
      <rect class="cls-1" x="212.72" y="553.01" width="42.53" height="42.61"/>
      <rect class="cls-1" x="212.72" y="510.49" width="42.53" height="42.53"/>
      <rect class="cls-1" x="212.72" y="467.96" width="42.53" height="42.53"/>
      <rect class="cls-1" x="212.72" y="425.44" width="42.53" height="42.53"/>
      <rect class="cls-1" x="212.72" y="382.91" width="42.53" height="42.53"/>
      <rect class="cls-1" x="212.72" y="340.29" width="42.53" height="42.61"/>
      <rect class="cls-1" x="212.72" y="297.77" width="42.53" height="42.53"/>
      <rect class="cls-1" x="212.72" y="255.24" width="42.53" height="42.53"/>
      <rect class="cls-1" x="212.72" y="212.72" width="42.53" height="42.53"/>
      <rect class="cls-1" x="212.72" y="170.19" width="42.53" height="42.53"/>
      <rect class="cls-1" x="212.72" y="127.67" width="42.53" height="42.53"/>
      <rect class="cls-3" x="212.72" y="85.05" width="42.53" height="42.61"/>
      <rect class="cls-4" x="212.72" y="42.53" width="42.53" height="42.53"/>
      <rect class="cls-4" x="255.24" y="680.68" width="42.53" height="42.53"/>
      <rect class="cls-2" x="255.24" y="638.15" width="42.53" height="42.53"/>
      <rect class="cls-1" x="255.24" y="595.63" width="42.53" height="42.53"/>
      <rect class="cls-1" x="255.24" y="553.01" width="42.53" height="42.61"/>
      <rect class="cls-1" x="255.24" y="510.49" width="42.53" height="42.53"/>
      <rect class="cls-1" x="255.24" y="467.96" width="42.53" height="42.53"/>
      <rect class="cls-1" x="255.24" y="425.44" width="42.53" height="42.53"/>
      <rect class="cls-1" x="255.24" y="382.91" width="42.53" height="42.53"/>
      <rect class="cls-1" x="255.24" y="340.29" width="42.53" height="42.61"/>
      <rect class="cls-1" x="255.24" y="297.77" width="42.53" height="42.53"/>
      <rect class="cls-1" x="255.24" y="255.24" width="42.53" height="42.53"/>
      <rect class="cls-1" x="255.24" y="212.72" width="42.53" height="42.53"/>
      <rect class="cls-1" x="255.24" y="170.19" width="42.53" height="42.53"/>
      <rect class="cls-1" x="255.24" y="127.67" width="42.53" height="42.53"/>
      <rect class="cls-1" x="255.24" y="85.05" width="42.53" height="42.61"/>
      <rect class="cls-3" x="255.24" y="42.53" width="42.53" height="42.53"/>
      <rect class="cls-4" x="255.24" width="42.53" height="42.53"/>
      <rect class="cls-4" x="297.77" y="680.68" width="42.53" height="42.53"/>
      <rect class="cls-2" x="297.77" y="638.15" width="42.53" height="42.53"/>
      <rect class="cls-1" x="297.77" y="595.63" width="42.53" height="42.53"/>
      <rect class="cls-1" x="297.77" y="553.01" width="42.53" height="42.61"/>
      <rect class="cls-1" x="297.77" y="510.49" width="42.53" height="42.53"/>
      <rect class="cls-1" x="297.77" y="467.96" width="42.53" height="42.53"/>
      <rect class="cls-1" x="297.77" y="425.44" width="42.53" height="42.53"/>
      <rect class="cls-1" x="297.77" y="382.91" width="42.53" height="42.53"/>
      <rect class="cls-1" x="297.77" y="340.29" width="42.53" height="42.61"/>
      <rect class="cls-1" x="297.77" y="297.77" width="42.53" height="42.53"/>
      <rect class="cls-1" x="297.77" y="255.24" width="42.53" height="42.53"/>
      <rect class="cls-1" x="297.77" y="212.72" width="42.53" height="42.53"/>
      <rect class="cls-1" x="297.77" y="170.19" width="42.53" height="42.53"/>
      <rect class="cls-1" x="297.77" y="127.67" width="42.53" height="42.53"/>
      <rect class="cls-1" x="297.77" y="85.05" width="42.53" height="42.61"/>
      <rect class="cls-3" x="297.77" y="42.53" width="42.53" height="42.53"/>
      <rect class="cls-4" x="297.77" width="42.53" height="42.53"/>
      <rect class="cls-4" x="340.29" y="680.68" width="42.53" height="42.53"/>
      <rect class="cls-2" x="340.29" y="638.15" width="42.53" height="42.53"/>
      <rect class="cls-1" x="340.29" y="595.63" width="42.53" height="42.53"/>
      <rect class="cls-1" x="340.29" y="553.01" width="42.53" height="42.61"/>
      <rect class="cls-1" x="340.29" y="510.49" width="42.53" height="42.53"/>
      <rect class="cls-1" x="340.29" y="467.96" width="42.53" height="42.53"/>
      <rect class="cls-1" x="340.29" y="425.44" width="42.53" height="42.53"/>
      <rect class="cls-1" x="340.29" y="382.91" width="42.53" height="42.53"/>
      <rect class="cls-1" x="340.29" y="340.29" width="42.53" height="42.61"/>
      <rect class="cls-1" x="340.29" y="297.77" width="42.53" height="42.53"/>
      <rect class="cls-1" x="340.29" y="255.24" width="42.53" height="42.53"/>
      <rect class="cls-1" x="340.29" y="212.72" width="42.53" height="42.53"/>
      <rect class="cls-1" x="340.29" y="170.19" width="42.53" height="42.53"/>
      <rect class="cls-1" x="340.29" y="127.67" width="42.53" height="42.53"/>
      <rect class="cls-1" x="340.29" y="85.05" width="42.53" height="42.61"/>
      <rect class="cls-3" x="340.29" y="42.53" width="42.53" height="42.53"/>
      <rect class="cls-4" x="340.29" width="42.53" height="42.53"/>
      <rect class="cls-4" x="382.82" y="680.68" width="42.61" height="42.53"/>
      <rect class="cls-2" x="382.82" y="638.15" width="42.61" height="42.53"/>
      <rect class="cls-1" x="382.82" y="595.63" width="42.61" height="42.53"/>
      <rect class="cls-1" x="382.82" y="553.01" width="42.61" height="42.61"/>
      <rect class="cls-1" x="382.82" y="510.49" width="42.61" height="42.53"/>
      <rect class="cls-1" x="382.82" y="467.96" width="42.61" height="42.53"/>
      <rect class="cls-1" x="382.82" y="425.44" width="42.61" height="42.53"/>
      <rect class="cls-1" x="382.82" y="382.91" width="42.61" height="42.53"/>
      <rect class="cls-1" x="382.82" y="340.29" width="42.61" height="42.61"/>
      <rect class="cls-1" x="382.82" y="297.77" width="42.61" height="42.53"/>
      <rect class="cls-1" x="382.82" y="255.24" width="42.61" height="42.53"/>
      <rect class="cls-1" x="382.82" y="212.72" width="42.61" height="42.53"/>
      <rect class="cls-1" x="382.82" y="170.19" width="42.61" height="42.53"/>
      <rect class="cls-1" x="382.82" y="127.67" width="42.61" height="42.53"/>
      <rect class="cls-1" x="382.82" y="85.05" width="42.61" height="42.61"/>
      <rect class="cls-3" x="382.82" y="42.53" width="42.61" height="42.53"/>
      <rect class="cls-4" x="382.82" width="42.61" height="42.53"/>
      <rect class="cls-4" x="425.44" y="680.68" width="42.53" height="42.53"/>
      <rect class="cls-2" x="425.44" y="638.15" width="42.53" height="42.53"/>
      <rect class="cls-1" x="425.44" y="595.63" width="42.53" height="42.53"/>
      <rect class="cls-1" x="425.44" y="553.01" width="42.53" height="42.61"/>
      <rect class="cls-1" x="425.44" y="510.49" width="42.53" height="42.53"/>
      <rect class="cls-1" x="425.44" y="467.96" width="42.53" height="42.53"/>
      <rect class="cls-1" x="425.44" y="425.44" width="42.53" height="42.53"/>
      <rect class="cls-1" x="425.44" y="382.91" width="42.53" height="42.53"/>
      <rect class="cls-1" x="425.44" y="340.29" width="42.53" height="42.61"/>
      <rect class="cls-1" x="425.44" y="297.77" width="42.53" height="42.53"/>
      <rect class="cls-1" x="425.44" y="255.24" width="42.53" height="42.53"/>
      <rect class="cls-1" x="425.44" y="212.72" width="42.53" height="42.53"/>
      <rect class="cls-1" x="425.44" y="170.19" width="42.53" height="42.53"/>
      <rect class="cls-1" x="425.44" y="127.67" width="42.53" height="42.53"/>
      <rect class="cls-1" x="425.44" y="85.05" width="42.53" height="42.61"/>
      <rect class="cls-3" x="425.44" y="42.53" width="42.53" height="42.53"/>
      <rect class="cls-4" x="425.44" width="42.53" height="42.53"/>
      <rect class="cls-4" x="467.96" y="638.15" width="42.53" height="42.53"/>
      <rect class="cls-2" x="467.96" y="595.63" width="42.53" height="42.53"/>
      <rect class="cls-1" x="467.96" y="553.01" width="42.53" height="42.61"/>
      <rect class="cls-1" x="467.96" y="510.49" width="42.53" height="42.53"/>
      <rect class="cls-1" x="467.96" y="467.96" width="42.53" height="42.53"/>
      <rect class="cls-1" x="467.96" y="425.44" width="42.53" height="42.53"/>
      <rect class="cls-1" x="467.96" y="382.91" width="42.53" height="42.53"/>
      <rect class="cls-1" x="467.96" y="340.29" width="42.53" height="42.61"/>
      <rect class="cls-1" x="467.96" y="297.77" width="42.53" height="42.53"/>
      <rect class="cls-1" x="467.96" y="255.24" width="42.53" height="42.53"/>
      <rect class="cls-1" x="467.96" y="212.72" width="42.53" height="42.53"/>
      <rect class="cls-1" x="467.96" y="170.19" width="42.53" height="42.53"/>
      <rect class="cls-1" x="467.96" y="127.67" width="42.53" height="42.53"/>
      <rect class="cls-3" x="467.96" y="85.05" width="42.53" height="42.61"/>
      <rect class="cls-4" x="467.96" y="42.53" width="42.53" height="42.53"/>
      <rect class="cls-4" x="510.49" y="638.15" width="42.53" height="42.53"/>
      <rect class="cls-2" x="510.49" y="595.63" width="42.53" height="42.53"/>
      <rect class="cls-1" x="510.49" y="553.01" width="42.53" height="42.61"/>
      <rect class="cls-1" x="510.49" y="510.49" width="42.53" height="42.53"/>
      <rect class="cls-1" x="510.49" y="467.96" width="42.53" height="42.53"/>
      <rect class="cls-1" x="510.49" y="425.44" width="42.53" height="42.53"/>
      <rect class="cls-1" x="510.49" y="382.91" width="42.53" height="42.53"/>
      <rect class="cls-1" x="510.49" y="340.29" width="42.53" height="42.61"/>
      <rect class="cls-1" x="510.49" y="297.77" width="42.53" height="42.53"/>
      <rect class="cls-1" x="510.49" y="255.24" width="42.53" height="42.53"/>
      <rect class="cls-1" x="510.49" y="212.72" width="42.53" height="42.53"/>
      <rect class="cls-1" x="510.49" y="170.19" width="42.53" height="42.53"/>
      <rect class="cls-1" x="510.49" y="127.67" width="42.53" height="42.53"/>
      <rect class="cls-3" x="510.49" y="85.05" width="42.53" height="42.61"/>
      <rect class="cls-4" x="510.49" y="42.53" width="42.53" height="42.53"/>
      <rect class="cls-4" x="553.01" y="595.63" width="42.53" height="42.53"/>
      <rect class="cls-2" x="553.01" y="553.01" width="42.53" height="42.61"/>
      <rect class="cls-1" x="553.01" y="510.49" width="42.53" height="42.53"/>
      <rect class="cls-1" x="553.01" y="467.96" width="42.53" height="42.53"/>
      <rect class="cls-1" x="553.01" y="425.44" width="42.53" height="42.53"/>
      <rect class="cls-1" x="553.01" y="382.91" width="42.53" height="42.53"/>
      <rect class="cls-1" x="553.01" y="340.29" width="42.53" height="42.61"/>
      <rect class="cls-1" x="553.01" y="297.77" width="42.53" height="42.53"/>
      <rect class="cls-1" x="553.01" y="255.24" width="42.53" height="42.53"/>
      <rect class="cls-1" x="553.01" y="212.72" width="42.53" height="42.53"/>
      <rect class="cls-1" x="553.01" y="170.19" width="42.53" height="42.53"/>
      <rect class="cls-3" x="553.01" y="127.67" width="42.53" height="42.53"/>
      <rect class="cls-4" x="553.01" y="85.05" width="42.53" height="42.61"/>
      <rect class="cls-4" x="595.54" y="553.01" width="42.61" height="42.61"/>
      <rect class="cls-2" x="595.54" y="510.49" width="42.61" height="42.53"/>
      <rect class="cls-2" x="595.54" y="467.96" width="42.61" height="42.53"/>
      <rect class="cls-1" x="595.54" y="425.44" width="42.61" height="42.53"/>
      <rect class="cls-1" x="595.54" y="382.91" width="42.61" height="42.53"/>
      <rect class="cls-1" x="595.54" y="340.29" width="42.61" height="42.61"/>
      <rect class="cls-1" x="595.54" y="297.77" width="42.61" height="42.53"/>
      <rect class="cls-1" x="595.54" y="255.24" width="42.61" height="42.53"/>
      <rect class="cls-1" x="595.54" y="212.72" width="42.61" height="42.53"/>
      <rect class="cls-3" x="595.54" y="170.19" width="42.61" height="42.53"/>
      <rect class="cls-4" x="595.54" y="127.67" width="42.61" height="42.53"/>
      <rect class="cls-4" x="638.15" y="510.49" width="42.53" height="42.53"/>
      <rect class="cls-4" x="638.15" y="467.96" width="42.53" height="42.53"/>
      <rect class="cls-2" x="638.15" y="425.44" width="42.53" height="42.53"/>
      <rect class="cls-2" x="638.15" y="382.91" width="42.53" height="42.53"/>
      <rect class="cls-2" x="638.15" y="340.29" width="42.53" height="42.61"/>
      <rect class="cls-2" x="638.15" y="297.77" width="42.53" height="42.53"/>
      <rect class="cls-2" x="638.15" y="255.24" width="42.53" height="42.53"/>
      <rect class="cls-4" x="638.15" y="212.72" width="42.53" height="42.53"/>
      <rect class="cls-4" x="638.15" y="170.19" width="42.53" height="42.53"/>
      <rect class="cls-4" x="680.68" y="425.44" width="42.53" height="42.53"/>
      <rect class="cls-4" x="680.68" y="382.91" width="42.53" height="42.53"/>
      <rect class="cls-4" x="680.68" y="340.29" width="42.53" height="42.61"/>
      <rect class="cls-4" x="680.68" y="297.77" width="42.53" height="42.53"/>
      <rect class="cls-4" x="680.68" y="255.24" width="42.53" height="42.53"/>
    </g>
    <g>
      <path class="cls-3" d="M177.35,434.79c.15-19.06.3-38.12.46-57.18l19.4-18.98,22.97-22.71,21.87-17.77,26.65-27.34,13.67-21.19c2.91-22.04,5.81-44.08,8.72-66.12,46.18-.11,92.36-.23,138.55-.34,3.76,25.57,7.53,51.15,11.29,76.72l101.15,92.26c.51,22.72,1.03,45.45,1.54,68.17-21.02,19.88-42.03,39.75-63.05,59.63-80.8.27-161.59.53-242.39.8-20.27-21.98-40.55-43.97-60.82-65.95Z"/>
      <rect class="cls-4" x="267.92" y="203.5" width="23.17" height="84.19"/>
      <rect class="cls-4" x="429.63" y="203.16" width="23.17" height="85.49"/>
      <rect class="cls-4" x="290.78" y="184.43" width="138.88" height="19.53"/>
      <rect class="cls-4" x="228.91" y="489.85" width="262.95" height="19.99"/>
      <rect class="cls-2" x="309.63" y="226.07" width="21.22" height="42.12"/>
      <rect class="cls-2" x="350.14" y="225.86" width="21.22" height="42.12"/>
      <rect class="cls-2" x="390.43" y="225.64" width="21.22" height="42.12"/>
      <rect class="cls-4" x="248.54" y="286.73" width="23.36" height="23.36"/>
      <rect class="cls-4" x="226.04" y="307.73" width="23.36" height="23.36"/>
      <rect class="cls-4" x="205.68" y="327.88" width="23.36" height="23.36"/>
      <rect class="cls-4" x="185.53" y="346.95" width="23.36" height="23.36"/>
      <rect class="cls-4" x="184.89" y="447.47" width="23.36" height="23.36"/>
      <rect class="cls-4" x="206.53" y="468.91" width="23.36" height="23.36"/>
      <rect class="cls-2" x="229.77" y="468.79" width="258.98" height="21.77"/>
      <rect class="cls-4" x="488.75" y="467.62" width="24.49" height="23.36"/>
      <rect class="cls-4" x="511.9" y="447.53" width="23.36" height="23.36"/>
      <rect class="cls-4" x="511.42" y="345.45" width="23.36" height="23.36"/>
      <rect class="cls-4" x="490.84" y="324.07" width="23.36" height="23.36"/>
      <rect class="cls-4" x="471.07" y="306.07" width="23.36" height="23.36"/>
      <rect class="cls-4" x="451.14" y="285.49" width="23.36" height="23.36"/>
      <rect class="cls-2" x="388.98" y="305.96" width="23.36" height="23.36"/>
      <rect class="cls-2" x="308.82" y="306.18" width="23.36" height="23.36"/>
      <rect class="cls-2" x="349.37" y="334.88" width="23.36" height="23.36"/>
      <rect class="cls-2" x="349.37" y="366.66" width="23.36" height="23.36"/>
      <rect class="cls-2" x="286.96" y="328.25" width="23.36" height="23.36"/>
      <rect class="cls-2" x="266.39" y="348.4" width="23.36" height="23.36"/>
      <rect class="cls-2" x="488.73" y="447.49" width="23.36" height="21.55"/>
      <rect class="cls-2" x="411.06" y="328.15" width="23.36" height="23.36"/>
      <rect class="cls-2" x="431.85" y="349.15" width="23.36" height="23.36"/>
      <rect class="cls-4" x="532.96" y="365.33" width="23.36" height="83.86"/>
      <rect class="cls-4" x="166.88" y="366.46" width="23.36" height="82.95"/>
      <rect class="cls-2" x="511.96" y="426.02" width="21.01" height="21.55"/>
    </g>
  </g>
</svg>