<?xml version="1.0" encoding="UTF-8"?>
<svg id="_Слой_2" data-name="Слой 2" xmlns="http://www.w3.org/2000/svg" viewBox="0 0 600.27 259.89">
  <defs>
    <style>
      .cls-1 {
        fill-rule: evenodd;
      }

      .cls-1, .cls-2, .cls-3, .cls-4 {
        stroke-width: 0px;
      }

      .cls-1, .cls-3 {
        fill: #fff;
      }

      .cls-2 {
        fill: #00193b;
      }

      .cls-5 {
        isolation: isolate;
      }

      .cls-4 {
        fill: #941b1b;
      }
    </style>
  </defs>
  <g id="_Монтажная_область_1" data-name="Монтажная область 1" class="cls-5">
    <g id="_57_99_завершено" data-name="57/99 завершено">
      <g>
        <path class="cls-4" d="M537.05,255.97H24.84c-11.56,0-20.93-9.38-20.93-20.97V66.22c0-11.58,9.37-20.97,20.93-20.97h512.21c11.56,0,20.93,9.38,20.93,20.97v168.79c0,11.58-9.37,20.97-20.93,20.97"/>
        <path class="cls-2" d="M537.05,259.89H24.84c-13.7,0-24.84-11.16-24.84-24.88V66.22c0-13.72,11.14-24.88,24.84-24.88h512.21c13.7,0,24.84,11.16,24.84,24.88v168.79c0,13.72-11.14,24.88-24.84,24.88ZM24.84,49.18c-9.38,0-17.02,7.65-17.02,17.04v168.79c0,9.4,7.63,17.04,17.02,17.04h512.21c9.38,0,17.02-7.65,17.02-17.04V66.22c0-9.4-7.63-17.04-17.02-17.04H24.84Z"/>
        <path class="cls-3" d="M258.36,178.38c3.09-7.66,7.09-8.23,12.69-7.66,5.6.57,11.43,8.23,5.03,13.94-4.83,4.31-8.69.46-11.2-1.72-2.51-2.17-4.34-.69-5.14,2.17-.56,2-1.02,5.67-2.83,7.85.41-.2,4.64-.25,8.2.72,7.17,1.96,5.4,14.81,10.06,17.14,2.51,1.26,3.05-4.72,2.51-8.69h3.43c1.6,5.03.53,12.66-1.03,16.23-1.94,4.46-8.97,8.7-17.38,4.57-6.74-3.31-8.68-11.54-8.34-19.89.25-6.05-4.34-5.9-6.29-5.03-.23,1.91-.5,6.31-.69,9.6-.18,3.29.38,10.11.92,11.2.53,1.09,2.51.57,2.51.57v2.4c-9.33-.5-14.55-.47-23.89,0v-2.97s1.26.4,1.94-.46c.69-.87.14-8.37.69-18.97.55-10.61-.34-22.24-.69-23.66-.34-1.42-2.63-.23-2.63-.23v-2.29c9.01-1.2,14.42-1.33,24.57-.8v3.09s-1.28-.96-2.29,0c-1.01.96-1.14,3.82-1.14,9.94s.61,8.19.92,8.46c.84.15,2.92.49,5.03-.91,2.4-1.6,1.94-6.97,5.03-14.63Z"/>
        <path class="cls-3" d="M35.37,156.5c12.68-4.76,19.62-4.67,31.89-2.51l-.23,2.51s-8.69-1.62-7.2,0c1.49,1.62,9.17,10.43,14.17,17.37,5.28-5.83,9.05-15.43,9.71-17.37.67-1.94-7.89-.69-7.89-.69v-2.63c8.91-1.03,14.42-.47,24.92,2.06l-.57,3.09s-9.6-2.17-11.2,0c-1.6,2.17-6.62,12.87-11.89,20.57,11.86,14.17,20.8,37.6,22.06,39.09,1.26,1.49,5.03-1.71,5.03-1.71l2.06,3.54c-9.98,3.29-17.09,4.11-32.23,4v-3.2s5.48,1.03,5.03-.8c-.46-1.83-7.92-13.48-15.09-21.49-3.98,8.04-10.97,17.03-12,19.66-1.03,2.63,10.86,2.63,10.86,2.63v3.2c-10.14-.11-15.86-.33-26.06-3.2v-3.54s4.46,1.37,6.97,0c2.51-1.37,10.68-12.76,16.12-22.97-7.63-14.32-18.4-34.52-19.89-35.77-1.49-1.26-3.2,1.03-3.2,1.03l-1.37-2.86Z"/>
        <path class="cls-3" d="M109.32,173.23c9.73-1.1,15.12-.91,24.69,0v2.29s-1.31-.49-1.83,0c-2.29,2.12-1.37,13.14-1.37,25.94,4.07-6.78,6.63-9.52,11.77-14.86,0-2.93.34-9.19-.46-10.52-.87-1.43-3.75-.92-3.77-.91l-.11-2.17c9.96-.91,14.95-.45,24.74.45h.06v2.29s-1.15-.65-1.94.64c-.8,1.31-.1,12.63-.34,20.28-.34,10.86-1.6,20.18.57,21.72.69.49,2.17,0,2.17,0v3.43c-9.23-.81-14.73-.74-24.92,0l-.46-2.97c.53.11,2.24.42,3.09-.46,1.37-1.42.59-1.14,1.14-8.8.57-7.89.23-11.28.23-18.06-4.46,7.15-7.03,10.48-11.77,14.97-1.03,7.43-.57,10.47.46,11.54.85.89,3.09.57,3.09.57l.23,3.2c-9.26-.88-14.71-1-25.26,0v-3.43s1.83,1.76,2.74-.23c.91-1.99.11-40.87-.34-42.06-.45-1.18-2.38-.01-2.4,0v-2.86Z"/>
        <path class="cls-3" d="M197.79,173c9.99-.92,15.66-.68,25.49.23v2.51s-1.71-.96-2.4.34c-.69,1.31-.33,12.92-.57,20.57-.34,10.86-1.94,18.53.34,21.21.74.87,2.4.51,2.4.51v3.43c-9.23-.81-14.73-.74-24.92,0l-.46-2.97c.53.11,1.89.31,2.86-.43,1.26-.96,3.54-5.88,2.51-21.72-5.46.73-8.19.71-13.26-.03,0,.05-.7,7.16-.46,11.49.22,4.03.11,8.91,1.49,9.88,1,.7,3.09.57,3.09.57l.23,3.2c-9.26-.88-14.48-1-25.03,0v-3.43s3.09.5,3.09-2.22c0-4-.86-27.28,0-33.94.78-6.05-3.28-6.12-3.31-6.12v-2.86c9.73-1.1,15.12-.91,24.69,0v2.29s-1.27-.43-1.83,0c-1.71,1.32-1.94,4.87-1.94,17.67,5.37-.78,8.31-.72,13.49,0,0,0,1.11-16.23-1.14-17.21-1.53-.67-4.19-.8-4.23-.8l-.11-2.17Z"/>
        <path class="cls-1" d="M240.76,90.09c3.77-1.94,15.09-1.6,20.46,4.46,5.37,6.06,9.6,11.77,8.92,22.52-.69,10.74-5.26,19.4-15.09,24-9.83,4.6-16.12.19-18.74-2.17,0,5.91.12,17.85.57,18.4.46.55,3.77.23,5.37,0v2.86h-28.46v-2.86h3.32c.34-.99,1.12-5.21,1.49-14.17.37-8.96-.15-36.42-.46-49.03l-4.34.46v-2.51l22.52-2.86v4.34c.23-.5,1.44-1.87,4.46-3.43ZM255.73,116.04c0-14.97-5.61-25.03-12.91-23.2-5.94,1.49-7.54,15.89-7.54,21.14,0,8.46,1.83,25.6,10.06,26.17,6.52.46,10.4-4.91,10.4-24.12Z"/>
        <path class="cls-3" d="M364.31,96.77c3.09-7.66,7.09-8.23,12.69-7.66,5.6.57,11.43,8.23,5.03,13.94-4.83,4.31-8.69.46-11.2-1.72-2.51-2.17-4.34-.69-5.15,2.17-.56,2-1.02,5.67-2.82,7.85.41-.2,4.64-.25,8.2.72,7.17,1.96,5.4,14.81,10.06,17.14,2.51,1.26,3.05-4.72,2.51-8.69h3.43c1.6,5.03.53,12.66-1.03,16.23-1.94,4.46-8.97,8.7-17.37,4.57-6.74-3.31-8.68-11.54-8.34-19.89.25-6.05-4.34-5.9-6.28-5.03-.23,1.91-.5,6.31-.69,9.6-.18,3.29.38,10.11.92,11.2.53,1.09,2.51.57,2.51.57v2.4c-9.33-.5-14.55-.47-23.89,0v-2.97s1.27.4,1.94-.46c.69-.87.14-8.37.68-18.97.55-10.61-.34-22.24-.68-23.66-.34-1.42-2.63-.23-2.63-.23v-2.29c9.01-1.2,14.42-1.33,24.57-.8v3.09s-1.28-.96-2.29,0c-1.01.96-1.14,3.82-1.14,9.94s.61,8.19.92,8.46c.84.15,2.92.49,5.03-.91,2.4-1.6,1.94-6.97,5.03-14.63Z"/>
        <path class="cls-3" d="M48.42,75.1c8.01-8,19.52-11.17,28.43-9.19,7.19,1.59,11.98,7.55,12.01,7.6.01-.03.68-1.77,1.38-4.21.23-.79.62-1.76.62-1.78h3.2c1.2,4.53,2.12,7.5,3.03,14.24.56,4.12.31,10.54.17,10.94l-3.2.4c-7.51-22.89-23.86-32.65-31.63-16.79-9.61,19.6-6.4,61.56,10.01,61.96,15.97.39,23.63-26.41,23.28-26.8h3.2c-.31,11.16-1.1,17.36-3.54,28.34h-3.54s-1.64-4.48-1.78-4.74c-2.4,2.8-10.44,6.16-16.82,6.8-4.01.4-16.95,1.57-27.47-8.34-7.21-6.8-10.97-16.04-10.97-29.64,0-9.99,5.61-20.79,13.61-28.78Z"/>
        <path class="cls-1" d="M182.81,88.26c4.91-.57,18.17-.23,24.12,14.4,3.33,8.21-.69,18.86.46,27.55.64,4.85,2.93.53,4-2.63l3.89,1.37c-.69,2.25-3.18,7.68-6.29,10.06-3.89,2.97-8.18,3.74-12.92,2.63-3.86-.91-6.03-4.98-6.06-5.03-.02.01-1.98,1.34-3.32,2.06-1.33.71-3.5,1.58-3.54,1.6-3.89,1.37-10.39,2.38-15.77-.23-4.71-2.28-7.78-6.06-8.45-9.77-2.4-13.32,12.9-15.74,15.62-16.79,1.5-.41,3.59-.81,5.98-1.33,2.67-.59,4.34-.8,6.97-1.49.83-.22,2.06-.8,2.06-.8,0-.06-.12-5.52-.12-7.89,0-2.97-.8-7.54-3.43-9.37-2.52-1.75-5.94-1.6-9.26-.12-2.44,1.09-3.19,1.93-3.2,1.94,0,.03-.44,1.84,2.29,3.89,2.18,1.64,3.09,5.26.23,9.37-2.86,4.11-7.85,6.44-13.37,2.63-4.8-3.31-2.97-11.54,1.72-15.54,4.69-4,13.86-5.99,18.4-6.51ZM189.44,113.29c-7.2,2.97-13.49,5.37-13.49,14.06,0,14.97,13.49,10.06,13.26,1.6-.11-4.25.42-12.19.23-15.66Z"/>
        <path class="cls-3" d="M273.45,91.82c9.73-1.1,15.12-.91,24.69,0v2.29s-1.31-.49-1.83,0c-2.29,2.12-1.37,13.14-1.37,25.94,4.07-6.78,6.63-9.52,11.77-14.86,0-2.93.34-9.19-.46-10.52-.87-1.43-3.74-.92-3.77-.91l-.11-2.17c9.96-.91,14.95-.45,24.74.45h.06v2.29s-1.15-.66-1.94.64c-.8,1.31-.1,12.63-.34,20.28-.34,10.86-1.6,20.18.57,21.72.69.49,2.17,0,2.17,0v3.43c-9.23-.81-14.73-.74-24.92,0l-.46-2.97c.53.11,2.24.42,3.09-.46,1.37-1.42.59-1.14,1.14-8.8.57-7.89.23-11.28.23-18.06-4.46,7.15-7.03,10.48-11.77,14.97-1.03,7.43-.57,10.47.46,11.54.85.89,3.08.57,3.08.57l.23,3.2c-9.26-.88-14.71-1-25.26,0v-3.43s1.83,1.76,2.74-.23c.92-1.99.11-40.87-.34-42.06-.46-1.19-2.39,0-2.4,0v-2.86Z"/>
        <path class="cls-3" d="M107.15,91.49c17.72-1.09,27.65-1.08,45.37,0,0,.04,2,9.2,2.4,13.19.4,3.96.4,8.71.4,8.79h-2.4c-.02-.09-1.07-6.2-2.68-9.79l-.03-.06c-1.47-3.26-2.76-6.15-4.9-7.75-1.6-1.2-4.81-1.86-6.01-2,.4,5.46.72,17.83.4,23.59-.4,7.19-.4,11.99-.4,15.59s1.54,4.33,1.56,4.34c.03,0,4.02.48,4.69.34l.16,2.51c-11.86-.46-18.94-.68-32.03,0l.55-2.51,4.34-.46c.03-.08,3.27-8.03,2.31-18.22-1.2-12.79-1.6-17.19-1.2-21.19.32-3.15.79-3.97.8-4-.08.02-7.4,1.57-10.37,7.51-2.96,5.93-4.06,11.01-4.08,11.09h-2.43c0-.08-.17-4.09.47-8.21.64-4.14,3.06-12.74,3.08-12.79Z"/>
        <path class="cls-1" d="M395.37,173.53c10.98-1.4,17.13-1.54,28.12-1.14l.57,3.54c-.8-.19-2.67-.46-3.77,0-1.37.57-2.97.57-2.97,3.66v11.09c3.39-.8,14.29-2.4,22.97,3.66,12.03,8.39,5.27,22.47-4.69,25.83-7.77,2.62-29.52,1.87-39.43,1.6v-3.09c1.06.08,3.97-.45,4-.46,0-.09.91-40.9-.57-42.06-1.47-1.13-4.18-.25-4.23-.23v-2.4ZM424.63,198.1c-2.63-5.49-5.83-3.89-7.2-3.89-.57,5.03-.75,12.2-.34,20,.1,1.92.34,4.92.34,4.92.02,0,5.49,1.02,7.54-4.11,1.86-4.65,1.38-13.32-.34-16.92Z"/>
        <path class="cls-3" d="M494.58,175.18c-1.07-.13-3.31-.03-3.77,1.44-.57,1.83-1.49,18.17,2.17,22.63,2.93,3.57,7.43,2.17,9.71,0,0,0,.8-21.77-.68-23.2-1.49-1.44-3.54-.86-3.54-.86l-.11-2.17c9.96-.91,14.95-.45,24.74.45h.06v2.29s-2.33-.8-2.86,2.01c-.53,2.82.81,11.26.57,18.91-.34,10.86-2.51,19.72-1.14,21.1,1.08,1.08,3.85.63,3.89.62v3.43c-9.23-.81-14.73-.74-24.92,0l-.46-2.97c.53.11,1.67.3,2.63-.46,1.94-1.53,1.6-15.48,1.6-15.59-3.66,2.36-13.67,6.35-20.8,2.97-8.91-4.23-10.29-10.52-9.37-19.09.92-8.57,1.14-8.73.91-10.17-.18-1.15-1.07-.65-1.71-.46v-2.58l23.09-1.08v2.79Z"/>
        <path class="cls-3" d="M443.15,173c9.96-.91,14.95-.45,24.74.45h.06v2.29s-1.83-.28-2.17,1.44c-.34,1.71.13,11.83-.11,19.48-.34,10.86-.92,20.47.23,21.32,1.13.84,2.49.4,2.51.39v3.43c-9.23-.81-14.73-.74-24.92,0l-.46-2.97c.53.11,1.94.39,3.09-.46,1.14-.85,3.54-9.36,2.51-25.19,0,0,.46-15.89-1.49-17.1-1.43-.89-3.88-.91-3.88-.91l-.11-2.17Z"/>
        <path class="cls-3" d="M346.55,202.55c-4.8-.13-8.5,3.56-9.07,9.3-.42,2.93,1.15,6.22,1.64,7.02,2.45,3.95,9.6,4.28,12.87.72,3.56-3.88,7.1-13.37,8.24-25.83.91-9.97,1.07-15.96,1.03-17.6h8.57c-.57,13.27-.55,39.6-.57,41.26-.03,2.75-3.77,2.17-5.14,2.17v2.4h27.54v-3.66s-2.4.79-3.08-1.26c-.69-2.06-1.69-18.93-2.06-26.97-.36-8.05.46-12.46.92-13.49.46-1.03,4.11-1.14,4.11-1.14v-2.17h-42.06v2.86s6.35-1.05,7.66,1.03c1.3,2.08-1.5,29.27-4.32,29.71-1.24-3.08-3.17-4.26-6.28-4.35Z"/>
        <path class="cls-1" d="M308.16,168.99c4.91-.57,18.17-.23,24.12,14.4,3.34,8.21-.69,18.86.46,27.54.35,2.65,1.75,1.97,2.53,1.42l.83,5.56c-.46.5-1.26,1.44-1.76,1.82-3.88,2.97-8.18,3.74-12.91,2.63-3.86-.91-6.03-4.97-6.06-5.03-.03.02-1.98,1.35-3.32,2.06-1.33.71-3.5,1.58-3.54,1.6-3.89,1.37-10.39,2.38-15.77-.23-4.71-2.28-7.79-6.06-8.46-9.77-2.4-13.32,12.9-15.74,15.62-16.79,1.5-.41,3.59-.81,5.98-1.33,2.67-.59,4.34-.8,6.97-1.49.83-.22,2.04-.79,2.06-.8h0c0-.12-.12-5.53-.12-7.89,0-2.97-.8-7.54-3.43-9.37-2.52-1.75-5.94-1.6-9.26-.12-2.44,1.09-3.19,1.93-3.2,1.94,0,.04-.43,1.85,2.29,3.89,2.18,1.64,3.09,5.26.23,9.37-2.86,4.11-7.85,6.44-13.37,2.63-4.8-3.31-2.97-11.54,1.72-15.54,4.69-4,13.86-5.99,18.4-6.51ZM314.79,194.02c-7.2,2.97-13.49,5.37-13.49,14.06,0,14.97,13.49,10.06,13.26,1.6-.11-4.25.42-12.19.23-15.66Z"/>
        <g>
          <polygon class="cls-3" points="467.97 45.22 465.06 49.31 457.32 56.5 447.73 66.09 438.12 75.56 428.53 85.16 425.39 90.97 425.39 121.22 428.53 123.57 438.12 133.16 447.72 142.74 456.22 146.22 569.31 145.31 571.52 142.74 581.11 133.16 590.69 123.57 594.56 118.31 595.14 87.22 590.69 84.16 581.11 74.56 571.51 64.96 561.92 55.37 552.33 45.78 544.81 27.69 546.31 4.8 470.64 4.14 467.97 45.22"/>
          <g>
            <rect class="cls-2" x="465.5" y="76.63" width="9.58" height="9.6"/>
            <rect class="cls-2" x="475.09" y="67.04" width="9.58" height="9.6"/>
            <rect class="cls-2" x="484.68" y="57.45" width="9.58" height="9.6"/>
            <rect class="cls-2" x="523.02" y="57.45" width="9.58" height="9.6"/>
            <rect class="cls-2" x="532.61" y="67.03" width="9.58" height="9.6"/>
            <rect class="cls-2" x="542.2" y="76.62" width="9.58" height="9.6"/>
            <rect class="cls-2" x="494.27" y="97.78" width="9.58" height="9.6"/>
            <rect class="cls-2" x="503.86" y="88.19" width="9.58" height="9.6"/>
            <rect class="cls-2" x="503.86" y="67.04" width="9.58" height="9.6"/>
            <rect class="cls-2" x="438.13" y="133.15" width="9.58" height="9.6"/>
            <rect class="cls-2" x="438.13" y="66.08" width="9.58" height="9.6"/>
            <rect class="cls-2" x="447.73" y="56.49" width="9.58" height="9.6"/>
            <rect class="cls-2" x="457.32" y="46.9" width="9.58" height="9.6"/>
            <rect class="cls-2" x="571.52" y="133.15" width="9.58" height="9.6"/>
            <rect class="cls-2" x="571.52" y="64.95" width="9.58" height="9.6"/>
            <rect class="cls-2" x="475.74" width="76.6" height="9.6"/>
            <rect class="cls-2" x="561.93" y="55.36" width="9.58" height="9.6"/>
            <rect class="cls-2" x="552.34" y="45.77" width="9.58" height="9.6"/>
            <rect class="cls-2" x="466.9" width="9.58" height="46.89"/>
            <rect class="cls-2" x="542.75" y="9.6" width="9.58" height="36.18"/>
            <rect class="cls-2" x="447.72" y="142.74" width="123.8" height="9.6"/>
            <rect class="cls-2" x="428.54" y="123.56" width="9.58" height="9.6"/>
            <rect class="cls-2" x="428.54" y="75.56" width="9.58" height="9.6"/>
            <rect class="cls-2" x="581.11" y="123.56" width="9.58" height="9.6"/>
            <rect class="cls-2" x="581.11" y="74.56" width="9.58" height="9.6"/>
            <rect class="cls-2" x="418.95" y="85.16" width="9.58" height="38.41"/>
            <rect class="cls-2" x="590.69" y="84.16" width="9.58" height="39.41"/>
            <rect class="cls-2" x="523.66" y="18.88" width="9.58" height="19.2"/>
            <rect class="cls-2" x="485.3" y="18.88" width="9.58" height="19.2"/>
            <rect class="cls-2" x="504.46" y="18.88" width="9.58" height="19.2"/>
          </g>
        </g>
      </g>
    </g>
  </g>
</svg>